<svg width="40" height="40" viewBox="0 0 40 40" fill="none" xmlns="http://www.w3.org/2000/svg">
<g clip-path="url(#clip0_219_45)">
<rect width="40" height="40" rx="20" fill="#1F2013"/>
<path d="M20.5 24.5C18.2312 24.5 16.2891 23.6922 14.6734 22.0766C13.0578 20.4609 12.25 18.5188 12.25 16.25C12.25 13.9812 13.0578 12.0391 14.6734 10.4234C16.2891 8.80781 18.2312 8 20.5 8C22.7687 8 24.7109 8.80781 26.3266 10.4234C27.9422 12.0391 28.75 13.9812 28.75 16.25C28.75 18.5188 27.9422 20.4609 26.3266 22.0766C24.7109 23.6922 22.7687 24.5 20.5 24.5ZM4 41V35.225C4 34.0563 4.30113 32.9824 4.90338 32.0034C5.50563 31.0244 6.3045 30.2764 7.3 29.7594C9.43125 28.6938 11.5969 27.8949 13.7969 27.3627C15.9969 26.8306 18.2312 26.5639 20.5 26.5625C22.7687 26.5625 25.0031 26.8292 27.2031 27.3627C29.4031 27.8962 31.5687 28.6951 33.7 29.7594C34.6969 30.275 35.4964 31.023 36.0987 32.0034C36.7009 32.9837 37.0014 34.0576 37 35.225V41H4Z" fill="white"/>
</g>
<defs>
<clipPath id="clip0_219_45">
<rect width="40" height="40" rx="20" fill="white"/>
</clipPath>
</defs>
</svg>
